# This file uses centimeters as units for non-parametric coordinates.

mtllib Shrewm.mtl
g default
v -0.251148 0.089629 0.256256
v 0.251148 0.089629 0.256256
v -0.742015 0.731302 0.757109
v 0.742015 0.731302 0.757109
v -0.742015 0.731302 -0.757109
v 0.742015 0.731302 -0.757109
v -0.251148 0.089629 -0.256256
v 0.251148 0.089629 -0.256256
v 0.226441 0.614732 0.231047
v -0.226440 0.614732 0.231047
v -0.226441 0.614732 -0.231047
v 0.226440 0.614732 -0.231047
v 0.329228 0.355538 0.335925
v -0.329228 0.355538 0.335925
v -0.329228 0.355538 -0.335925
v 0.329228 0.355538 -0.335925
v 0.256075 0.879946 0.261283
v -0.256075 0.879946 0.261283
v -0.256075 0.879946 -0.261283
v 0.256075 0.879946 -0.261283
v -0.258287 1.520075 0.258287
v 0.258287 1.520075 0.258287
v 0.258287 1.520075 -0.258287
v -0.258287 1.520075 -0.258287
v -0.657240 1.179432 -0.670609
v 0.657240 1.179432 -0.670609
v 0.657240 1.179432 0.670609
v -0.657240 1.179432 0.670609
v 0.000000 1.520075 0.309332
v 0.000000 1.520075 -0.309332
v -0.000269 1.181260 -0.935594
v 0.001232 0.728842 -1.087496
v 0.000000 0.879946 -0.395476
v 0.000000 0.614732 -0.349710
v 0.000000 0.355538 -0.508452
v 0.000000 0.089629 -0.387867
v 0.000000 0.089629 0.387867
v 0.000000 0.355538 0.508452
v 0.000000 0.614732 0.349710
v 0.000000 0.879946 0.395476
v -0.001232 0.728842 1.087496
v 0.000269 1.181260 0.935594
v 0.309332 1.520075 0.000000
v 0.000000 1.564090 0.000000
v -0.309332 1.520075 0.000000
v -0.934619 1.181260 0.000000
v -1.067753 0.728842 -0.000000
v -0.394421 0.879946 0.000000
v -0.336365 0.614732 0.000000
v -0.496191 0.355538 0.000569
v -0.384768 0.089629 0.000000
v 0.000000 0.038255 0.000000
v 0.384768 0.089629 0.000000
v 0.496191 0.355538 -0.000569
v 0.336365 0.614732 0.000000
v 0.394421 0.879946 0.000000
v 1.067753 0.728842 -0.000000
v 0.934619 1.181260 0.000000
v -0.499045 0.856433 0.509196
v -0.731087 0.855203 0.000000
v -0.499045 0.856433 -0.509196
v 0.000616 0.855203 -0.741486
v 0.499045 0.856433 -0.509196
v 0.731087 0.855203 0.000000
v 0.499045 0.856433 0.509196
v -0.000616 0.855203 0.741486
vt 0.731159 0.094030
vt 0.748814 0.074868
vt 0.732858 0.179491
vt 0.688380 0.135307
vt 0.250502 0.344650
vt 0.226885 0.299414
vt 0.284862 0.282653
vt 0.301555 0.340407
vt 0.593925 0.034283
vt 0.913669 0.357785
vt 0.911386 0.086431
vt 0.647655 0.000000
vt 0.835836 0.000000
vt 0.830100 0.080650
vt 0.772576 0.129532
vt 0.864732 0.224865
vt 0.821751 0.268362
vt 0.775760 0.224683
vt 0.644342 0.086783
vt 0.645430 0.177777
vt 0.687744 0.224148
vt 0.600800 0.596543
vt 0.605170 0.217641
vt 0.601593 0.134325
vt 0.695855 0.529287
vt 0.744712 0.566856
vt 0.763382 0.624152
vt 0.866254 0.399759
vt 0.562083 0.091914
vt 0.733254 0.267780
vt 0.776301 0.313716
vt 0.668327 0.691408
vt 0.692740 0.307199
vt 0.529455 0.584297
vt 0.594814 0.489980
vt 0.707648 0.459840
vt 0.804207 0.525537
vt 0.834727 0.636398
vt 0.656534 0.760854
vt 0.559975 0.695158
vt 0.549253 0.426983
vt 0.453638 0.571292
vt 0.088338 0.339411
vt 0.187384 0.455330
vt 0.496171 0.739584
vt 0.643961 0.834893
vt 0.228295 0.086953
vt 0.110288 0.188616
vt 0.910544 0.649403
vt 0.868011 0.481111
vt 0.459437 0.376689
vt 0.481387 0.225894
vt 0.720221 0.385802
vt 0.341430 0.478353
vt 0.346997 0.316754
vt 0.342840 0.265892
vt 0.268170 0.224899
vt 0.222728 0.248551
vt 0.382341 0.109975
vt 0.319223 0.220655
vt 0.431488 0.021127
vt 0.769368 0.730715
vt 0.726846 0.672072
vt 0.822675 0.355914
vt 0.866196 0.313947
vt 0.880127 0.137181
vt 0.203152 0.000000
vt 0.814929 0.793712
vt 0.366573 0.565305
vt 0.548410 0.425628
vt 0.000000 0.365333
vt 0.021315 0.139678
vt 0.569725 0.199972
vt 0.138236 0.544178
vt 0.735337 0.355015
vt 0.619470 0.653839
vt 0.558978 0.174486
vt 0.518888 0.126845
vt 0.646727 0.264442
vt 0.637335 0.548623
vt 0.826265 0.441699
vt 0.783505 0.396859
vt 0.871943 0.482105
vt 0.908019 0.439801
vt 0.965341 0.407324
vt 0.824364 0.161299
vt 0.818100 0.182627
vt 0.688980 0.046266
vt 0.780073 0.024119
vt 0.776733 0.136442
vt 0.954550 0.312987
vt 0.907609 0.271274
vt 0.887624 0.031768
vt 1.000000 0.353662
vn -0.430717 -0.372728 0.821922
vn 0.000000 -0.413002 0.910730
vn 0.000000 0.050789 0.998709
vn -0.463607 0.049005 0.884685
vn -0.084593 0.992818 0.084592
vn 0.000000 0.996390 0.084897
vn 0.000000 1.000000 0.000000
vn -0.084897 0.996390 0.000000
vn -0.463607 0.049005 -0.884685
vn -0.000000 0.050789 -0.998709
vn -0.000000 -0.413002 -0.910730
vn -0.430717 -0.372729 -0.821922
vn -0.101137 -0.994873 -0.000000
vn -0.000000 -1.000000 0.000000
vn 0.000000 -0.994954 0.100337
vn -0.100632 -0.989903 0.099828
vn 0.832305 -0.359351 0.422062
vn 0.917878 -0.396862 0.000473
vn 0.998398 0.056587 -0.000538
vn 0.893779 0.055618 0.445046
vn -0.917878 -0.396862 -0.000473
vn -0.831713 -0.360119 0.422573
vn -0.893433 0.055567 0.445747
vn -0.998398 0.056587 0.000538
vn -0.452802 0.219913 0.864065
vn -0.000000 0.253245 0.967402
vn -0.000025 -0.967321 0.253557
vn -0.153203 -0.946154 0.285168
vn -0.971315 0.237796 -0.000251
vn -0.875383 0.212837 0.434057
vn -0.284800 -0.947332 0.146466
vn -0.251410 -0.967881 0.000000
vn -0.153140 -0.946229 -0.284955
vn 0.000025 -0.967321 -0.253557
vn -0.000000 0.253246 -0.967402
vn -0.452801 0.219914 -0.864065
vn 0.875612 0.212633 0.433695
vn 0.971315 0.237796 0.000250
vn 0.251410 -0.967881 -0.000000
vn 0.284800 -0.947332 0.146466
vn -0.000060 -0.962319 -0.271922
vn 0.117661 -0.957515 -0.263287
vn 0.270638 -0.955480 -0.117527
vn 0.276662 -0.960967 0.000000
vn 0.117517 -0.957414 0.263720
vn 0.000060 -0.962319 0.271922
vn -0.276662 -0.960967 -0.000000
vn -0.270638 -0.955480 -0.117527
vn -0.377032 0.270615 0.885785
vn -0.000768 0.291534 0.956560
vn 0.000470 0.564553 0.825397
vn -0.316533 0.537557 0.781562
vn 0.891517 0.251888 0.376496
vn 0.962327 0.271894 -0.000000
vn 0.833174 0.553011 -0.000000
vn 0.790089 0.522787 0.320081
vn 0.000768 0.291534 -0.956560
vn -0.376720 0.269458 -0.886270
vn -0.316482 0.536793 -0.782108
vn -0.000470 0.564553 -0.825397
vn -0.962327 0.271894 0.000000
vn -0.891517 0.251888 0.376496
vn -0.790089 0.522788 0.320081
vn -0.833174 0.553011 0.000000
vn -0.171682 0.853340 -0.492276
vn 0.000038 0.866176 -0.499739
vn 0.501737 0.865020 -0.000000
vn 0.493879 0.851472 0.176293
vn -0.000038 0.866176 0.499739
vn -0.171613 0.853302 0.492367
vn -0.493879 0.851472 0.176293
vn -0.501737 0.865020 0.000000
vn 0.084593 0.992818 0.084593
vn 0.084897 0.996390 0.000000
vn 0.316533 0.537557 -0.781562
vn 0.171613 0.853302 -0.492367
vn 0.377032 0.270615 -0.885785
vn -0.117661 -0.957515 0.263287
vn 0.153203 -0.946154 -0.285168
vn 0.452801 0.219914 -0.864065
vn 0.463607 0.049005 -0.884685
vn 0.430717 -0.372729 -0.821922
vn 0.101137 -0.994873 0.000000
vn 0.100632 -0.989903 0.099828
vn 0.430717 -0.372729 0.821922
vn 0.463607 0.049005 0.884685
vn 0.452801 0.219914 0.864065
vn 0.153140 -0.946229 0.284955
vn -0.117517 -0.957414 -0.263720
vn 0.376720 0.269458 0.886270
vn 0.316482 0.536793 0.782108
vn 0.171682 0.853340 0.492276
vn 0.084593 0.992818 -0.084592
vn 0.000000 0.996390 -0.084897
vn -0.084593 0.992818 -0.084592
vn -0.790089 0.522787 -0.320081
vn -0.493879 0.851472 -0.176293
vn -0.891517 0.251888 -0.376496
vn -0.284800 -0.947332 -0.146466
vn 0.270638 -0.955480 0.117527
vn -0.875612 0.212634 -0.433695
vn -0.893779 0.055618 -0.445046
vn -0.832304 -0.359351 -0.422062
vn -0.100632 -0.989903 -0.099828
vn 0.000000 -0.994954 -0.100337
vn 0.100632 -0.989903 -0.099828
vn 0.831713 -0.360119 -0.422573
vn 0.893433 0.055567 -0.445746
vn 0.875383 0.212838 -0.434057
vn 0.284800 -0.947332 -0.146466
vn -0.270638 -0.955480 0.117527
vn 0.891517 0.251888 -0.376496
vn 0.790089 0.522788 -0.320081
vn 0.493879 0.851472 -0.176293
vn 0.340083 -0.928821 -0.147093
vn 0.343823 -0.939035 0.000000
vn 0.340083 -0.928821 0.147093
vn 0.148300 -0.930946 0.333687
vn -0.000138 -0.941421 0.337233
vn -0.148570 -0.931039 0.333307
vn -0.343823 -0.939035 -0.000000
vn -0.340083 -0.928820 0.147093
vn -0.340083 -0.928821 -0.147093
vn 0.000138 -0.941421 -0.337233
vn -0.148300 -0.930946 -0.333687
vn 0.148570 -0.931039 -0.333307
s 1
g pCube1
usemtl initialShadingGroup
f 1/1/1 37/90/2 38/3/3 14/4/4
s 2
f 21/5/5 29/6/6 44/7/7 45/8/8
s 3
f 15/85/9 35/10/10 36/91/11 7/94/12
s 4
f 51/13/13 52/14/14 37/2/15 1/89/16
s 5
f 2/87/17 53/16/18 54/17/19 13/18/20
s 6
f 51/88/21 1/1/22 14/4/23 50/19/24
s 1
f 10/20/25 39/21/26 40/79/27 18/23/28
s 6
f 49/24/29 10/20/30 18/23/31 48/77/32
s 3
f 19/83/33 33/81/34 34/28/35 11/84/36
s 5
f 9/30/37 55/31/38 56/75/39 17/33/40
s 1
f 14/4/4 38/3/3 39/21/26 10/20/25
s 6
f 50/19/24 14/4/23 10/20/30 49/24/29
s 3
f 11/84/36 34/28/35 35/10/10 15/85/9
s 5
f 13/18/20 54/17/19 55/31/38 9/30/37
s 1
f 18/80/28 40/22/27 66/34/41 59/35/42
s 6
f 48/25/32 18/80/31 59/35/43 60/36/44
s 3
f 61/37/45 62/38/46 33/27/34 19/26/33
s 5
f 17/76/40 56/32/39 64/39/47 65/40/48
s 8
f 3/74/49 41/71/50 42/43/51 28/44/52
s 9
f 4/72/53 57/67/54 58/47/55 27/48/56
s 10
f 32/73/57 5/70/58 25/51/59 31/52/60
s 11
f 47/69/61 3/74/62 28/44/63 46/54/64
s 10
f 31/52/60 25/51/59 24/55/65 30/56/66
s 9
f 27/48/56 58/47/55 43/57/67 22/58/68
s 8
f 28/44/52 42/43/51 29/6/69 21/5/70
s 11
f 46/54/64 28/44/63 21/5/71 45/8/72
s 2
f 29/6/6 22/58/73 43/57/74 44/7/7
s 10
f 26/59/75 31/52/60 30/56/66 23/60/76
f 6/61/77 32/73/57 31/52/60 26/59/75
s 3
f 33/27/34 62/38/46 63/62/78 20/63/79
f 34/28/35 33/81/34 20/82/79 12/64/80
f 35/10/10 34/28/35 12/64/80 16/65/81
f 36/91/11 35/10/10 16/65/81 8/92/82
s 4
f 37/2/15 52/14/14 53/86/83 2/15/84
s 1
f 38/3/3 37/90/2 2/87/85 13/18/86
f 39/21/26 38/3/3 13/18/86 9/30/87
f 40/79/27 39/21/26 9/30/87 17/33/88
f 66/34/41 40/22/27 17/76/88 65/40/89
s 8
f 42/43/51 41/71/50 4/72/90 27/48/91
f 29/6/69 42/43/51 27/48/91 22/58/92
s 2
f 44/7/7 43/57/74 23/60/93 30/56/94
f 45/8/8 44/7/7 30/56/94 24/55/95
s 11
f 25/51/96 46/54/64 45/8/72 24/55/97
f 5/70/98 47/69/61 46/54/64 25/51/96
s 6
f 19/26/99 48/25/32 60/36/44 61/37/100
f 11/29/101 49/24/29 48/77/32 19/78/99
f 15/9/102 50/19/24 49/24/29 11/29/101
f 7/12/103 51/88/21 50/19/24 15/9/102
s 4
f 7/93/104 36/11/105 52/14/14 51/13/13
f 53/86/83 52/14/14 36/11/105 8/66/106
s 5
f 54/17/19 53/16/18 8/92/107 16/65/108
f 55/31/38 54/17/19 16/65/108 12/64/109
f 56/75/39 55/31/38 12/64/109 20/82/110
f 64/39/47 56/32/39 20/63/110 63/62/111
s 9
f 58/47/55 57/67/54 6/61/112 26/59/113
f 43/57/67 58/47/55 26/59/113 23/60/114
s 6
f 60/36/44 59/35/43 3/41/115 47/53/116
f 61/37/100 60/36/44 47/53/116 5/50/117
s 3
f 5/50/118 32/49/119 62/38/46 61/37/45
f 63/62/78 62/38/46 32/49/119 6/68/120
s 5
f 57/46/121 64/39/47 63/62/111 6/68/122
f 65/40/48 64/39/47 57/46/121 4/45/123
s 1
f 41/42/124 66/34/41 65/40/89 4/45/125
f 59/35/42 66/34/41 41/42/124 3/41/126
